<?xml version="1.0" encoding="UTF-8"?> <svg xmlns="http://www.w3.org/2000/svg" width="408" height="275" fill="none" viewBox="0 0 408 275"><g clip-path="url(#prefix__clip0)"><path fill="#DAEEF2" d="M185 230.071s.7 11-1.7 18.6c-3.9 12.5-14.8 13.8-14.8 20.4 0 .1 68.5.2 68.5 0 0-6.3-10.3-8.3-13.9-20-2.7-8.7-1.1-19.1-1.1-19.1h-37v.1z"></path><path fill="#EBF9FC" d="M237 268.971h-68.5v3H237v-3zM323.6 221.27c0 8.2-6.8 15-15 15H97.2c-8.2 0-15-6.8-15-15V86.17c0-8.2 6.8-15 15-15h211.4c8.2 0 15 6.8 15 15v135.1z"></path><path fill="url(#prefix__paint0_linear)" d="M307.3 210.97H98.1c-3.1 0-5.7-2.5-5.7-5.7V87.77c0-3.1 2.5-5.7 5.7-5.7h209.2c3.1 0 5.7 2.5 5.7 5.7v117.5c0 3.2-2.5 5.7-5.7 5.7z"></path><path fill="#C7D4EA" d="M202.7 229.07c2.982 0 5.4-2.418 5.4-5.4 0-2.983-2.418-5.4-5.4-5.4s-5.4 2.417-5.4 5.4c0 2.982 2.418 5.4 5.4 5.4z"></path><path fill="url(#prefix__paint1_linear)" d="M225 185.871h-44.2c-4.5 0-8.2-3.7-8.2-8.2v-34.2c0-4.5 3.7-8.2 8.2-8.2H225c4.5 0 8.2 3.7 8.2 8.2v34.2c0 4.6-3.7 8.2-8.2 8.2z"></path><path fill="url(#prefix__paint2_linear)" d="M202.5 150.171c-3 .2-5.4 2.7-5.5 5.7-.1 2.4 1.2 4.5 3.2 5.5v8.1c0 .9.7 1.6 1.6 1.6h2.2c.9 0 1.6-.7 1.6-1.6v-8.1c1.9-1 3.2-3 3.2-5.3 0-3.4-2.9-6.1-6.3-5.9z"></path><path fill="#C7D4EA" d="M225.3 124.371v11h-9v-11c0-7.4-6-13.4-13.4-13.4s-13.4 6-13.4 13.4v11h-9v-11c0-6.2 2.5-11.8 6.6-15.8 4-4 9.6-6.6 15.8-6.6 12.4 0 22.4 10 22.4 22.4z"></path><path fill="#003390" d="M406.2 274.469H1.3c-.7 0-1.3-.6-1.3-1.3 0-.7.6-1.3 1.3-1.3h404.9c.7 0 1.3.6 1.3 1.3 0 .8-.6 1.3-1.3 1.3z"></path><path fill="url(#prefix__paint3_linear)" d="M371.5 191.47c-.1.9-.2 1.9-.2 2.9-.1.5-.1 1-.2 1.4-.8 7.1-1.8 12.4-2.3 14.9-.2.9-.3 1.4-.3 1.4-5.3 23-18.3 49.5-49.6 59.9-31.3-10.4-44.4-36.9-49.6-59.9 0 0-.1-.4-.4-1.4-.5-2.1-1.4-6.8-2.3-14.9-.1-.5-.1-.9-.2-1.4-.1-1-.2-1.9-.2-2.9-.8-11.1-.1-18.8-.1-18.8 27.4 2.6 50.7-15.8 52.8-17.5 2.1 1.7 25.4 20.1 52.7 17.5 0 .1.7 7.7-.1 18.8z"></path><path fill="url(#prefix__paint4_linear)" d="M318.9 265.57c-22.6-8.2-37.3-26.7-43.8-54.9v-.2l-.1-.2s-.1-.3-.2-.8l-.1-.2c-.4-1.9-1.3-6.3-2.2-14.2l-.2-1.4c-.1-.7-.1-1.3-.2-2l-.1-.7c-.3-4.8-.4-8.9-.4-12 21.3-.1 39.3-10.9 47-16.3 7.7 5.4 25.8 16.2 47 16.3 0 3.1 0 7.2-.4 12.1-.1.9-.1 1.8-.2 2.7l-.2 1.3c-.8 7.1-1.9 12.4-2.3 14.3l-.3 1.3c-6 28.2-20.8 46.7-43.3 54.9z"></path><path fill="url(#prefix__paint5_linear)" d="M332.2 197.87l-18.3 18.4c-.1.1-.2.1-.3 0l-8.1-8.1c-.9-.9-2.4-.9-3.3 0l-4 4c-.9.9-.9 2.4 0 3.3l13.8 13.9c.9.9 2.4.9 3.3 0l24.1-24.2c.9-.9.9-2.4 0-3.3l-4-4c-.8-.9-2.3-.9-3.2 0z"></path><path fill="url(#prefix__paint6_linear)" d="M254.6 39.97c0 11.5-9.3 20.8-20.8 20.8H176c-10.2 0-18.5-8.3-18.5-18.5s8.3-18.5 18.5-18.5h.7c2.1-8.2 9.4-13.9 17.9-13.9 2.5 0 5 .5 7.2 1.5 5.5-10.1 18.2-13.7 28.3-8.2 6.3 3.5 10.4 10 10.8 17.2 8.1 2.9 13.7 10.7 13.7 19.6z"></path><path fill="url(#prefix__paint7_linear)" d="M253.1 39.37c0 11.5-9.3 20.8-20.8 20.8h-57.8c-10.2 0-18.5-8.3-18.5-18.5s8.3-18.5 18.5-18.5h.7c2.1-8.2 9.4-13.9 17.9-13.9 2.5 0 5 .5 7.2 1.5 5.5-10.1 18.2-13.7 28.3-8.2 6.3 3.5 10.4 10 10.8 17.2 8.1 3 13.7 10.8 13.7 19.6z"></path><path fill="url(#prefix__paint8_linear)" d="M133.1 238.17v31.9c0 1-.8 1.9-1.9 1.9H37.5c-1 0-1.9-.8-1.9-1.9v-31.9c0-1 .8-1.9 1.9-1.9h93.8c1 0 1.8.9 1.8 1.9z"></path><g opacity=".5"><path fill="#fff" d="M98.9 259.77c0 2.3-1.9 4.2-4.2 4.2-2.3 0-4.2-1.9-4.2-4.2 0-2.3 1.9-4.2 4.2-4.2 2.3-.1 4.2 1.8 4.2 4.2zM125.2 259.77c0 2.3-1.9 4.2-4.2 4.2-2.3 0-4.2-1.9-4.2-4.2 0-2.3 1.9-4.2 4.2-4.2 2.3-.1 4.2 1.8 4.2 4.2zM112 259.77c0 2.3-1.9 4.2-4.2 4.2-2.3 0-4.2-1.9-4.2-4.2 0-2.3 1.9-4.2 4.2-4.2 2.3 0 4.2 1.8 4.2 4.2z" opacity=".5"></path></g><path fill="url(#prefix__paint9_linear)" d="M133.1 198.17v31.9c0 1-.8 1.9-1.9 1.9H37.5c-1 0-1.9-.8-1.9-1.9v-31.9c0-1 .8-1.9 1.9-1.9h93.8c1 .1 1.8.9 1.8 1.9z"></path><g opacity=".5"><path fill="#fff" d="M98.9 219.77c0 2.3-1.9 4.2-4.2 4.2-2.3 0-4.2-1.9-4.2-4.2 0-2.3 1.9-4.2 4.2-4.2 2.3 0 4.2 1.9 4.2 4.2zM125.2 219.77c0 2.3-1.9 4.2-4.2 4.2-2.3 0-4.2-1.9-4.2-4.2 0-2.3 1.9-4.2 4.2-4.2 2.3 0 4.2 1.9 4.2 4.2zM112 219.77c0 2.3-1.9 4.2-4.2 4.2-2.3 0-4.2-1.9-4.2-4.2 0-2.3 1.9-4.2 4.2-4.2 2.3 0 4.2 1.9 4.2 4.2z" opacity=".5"></path></g><path fill="url(#prefix__paint10_linear)" d="M18.2 153.771h99.6c1.7 0 3.1-1.4 3.1-3.1v-35.1c0-1.7-1.4-3.1-3.1-3.1H18.2c-1.7 0-3.1 1.4-3.1 3.1v35.1c0 1.7 1.4 3.1 3.1 3.1z"></path><path fill="url(#prefix__paint11_linear)" d="M36.3 146.871c7.622 0 13.8-6.178 13.8-13.8 0-7.621-6.178-13.8-13.8-13.8-7.621 0-13.8 6.179-13.8 13.8 0 7.622 6.178 13.8 13.8 13.8z"></path><path fill="#fff" d="M43.4 139.039c-1.7 2-4.3 3.2-7.2 3.2-2.9 0-5.4-1.3-7.2-3.2 0-2.2 1.8-3.9 4-3.9h6.4c2.2-.1 4 1.7 4 3.9zM40.3 129.539c0 2.2-1.8 4-4 4s-4-1.8-4-4 1.8-4 4-4 4 1.8 4 4z"></path><g opacity=".65"><path fill="#fff" d="M111.7 126.67H56.5c-.2 0-.4-.2-.4-.4v-2.8c0-.2.2-.4.4-.4h55.2c.2 0 .4.2.4.4v2.8c.1.2-.1.4-.4.4zM111.7 134.87H56.5c-.2 0-.4-.2-.4-.4v-2.8c0-.2.2-.4.4-.4h55.2c.2 0 .4.2.4.4v2.8c.1.2-.1.4-.4.4zM93.3 143.17H56.5c-.2 0-.4-.2-.4-.4v-2.8c0-.2.2-.4.4-.4h36.8c.2 0 .4.2.4.4v2.8c.1.2-.1.4-.4.4z" opacity=".65"></path></g><path fill="#fff" d="M375.6 147.769h-35.8c-2.2 0-3.9-2-3.9-4.4v-41.5h31.9c2.2 0 4 2 4 4.4v37.1c-.2 2.4 1.6 4.4 3.8 4.4z"></path><path fill="url(#prefix__paint12_linear)" d="M371.6 143.369h7.9c0 2.4-1.8 4.4-4 4.4s-3.9-2-3.9-4.4z"></path><path fill="url(#prefix__paint13_linear)" d="M340.1 137.57h17.3v2.7h-17.3v-2.7z"></path><path fill="url(#prefix__paint14_linear)" d="M340.1 131.57h27.4v2.7h-27.4v-2.7z"></path><path fill="url(#prefix__paint15_linear)" d="M340.1 125.67h27.4v2.7h-27.4v-2.7z"></path><path fill="url(#prefix__paint16_linear)" d="M340.1 119.67h27.4v2.7h-27.4v-2.7z"></path><path fill="url(#prefix__paint17_linear)" d="M340.1 113.67h27.4v2.7h-27.4v-2.7z"></path><path fill="url(#prefix__paint18_linear)" d="M335.9 101.869h-.1c-2.2 0-4 2-4 4.4h31.9c0-2.4 1.8-4.4 3.9-4.4h-31.7z"></path></g><defs><linearGradient id="prefix__paint0_linear" x1="-6.925" x2="541.05" y1="146.544" y2="146.544" gradientUnits="userSpaceOnUse"><stop stop-color="#3B85FF"></stop><stop offset=".099" stop-color="#448AFD"></stop><stop offset=".262" stop-color="#5C97F8"></stop><stop offset=".467" stop-color="#84ADF0"></stop><stop offset=".704" stop-color="#BBCBE5"></stop><stop offset=".842" stop-color="#DEDEDE"></stop><stop offset="1" stop-color="#DEDEDE"></stop></linearGradient><linearGradient id="prefix__paint1_linear" x1="74.084" x2="326.7" y1="160.626" y2="160.626" gradientUnits="userSpaceOnUse"><stop stop-color="#FFEFAE"></stop><stop offset=".109" stop-color="#FFEFAE"></stop><stop offset=".186" stop-color="#FEA"></stop><stop offset=".264" stop-color="#FFEA9E"></stop><stop offset=".342" stop-color="#FFE58A"></stop><stop offset=".419" stop-color="#FFDD6E"></stop><stop offset=".424" stop-color="#FFDC6C"></stop><stop offset=".644" stop-color="#FFA44E"></stop><stop offset=".817" stop-color="#FF7F3B"></stop><stop offset=".908" stop-color="#FF7133"></stop><stop offset="1" stop-color="#FF7133"></stop></linearGradient><linearGradient id="prefix__paint2_linear" x1="199.819" x2="208.859" y1="173.453" y2="122.621" gradientUnits="userSpaceOnUse"><stop stop-color="#061872"></stop><stop offset=".091" stop-color="#051D7B"></stop><stop offset=".239" stop-color="#032C93"></stop><stop offset=".425" stop-color="#0043BB"></stop><stop offset=".433" stop-color="#0044BD"></stop><stop offset=".992" stop-color="#B1FFE5"></stop><stop offset="1" stop-color="#B1FFE5"></stop></linearGradient><linearGradient id="prefix__paint3_linear" x1="206.231" x2="438.532" y1="213.582" y2="213.582" gradientUnits="userSpaceOnUse"><stop stop-color="#97D7FF"></stop><stop offset=".25" stop-color="#B1E1FF"></stop><stop offset=".781" stop-color="#F4FBFF"></stop><stop offset=".867" stop-color="#fff"></stop><stop offset="1" stop-color="#fff"></stop></linearGradient><linearGradient id="prefix__paint4_linear" x1="235.581" x2="441.036" y1="214.147" y2="214.147" gradientUnits="userSpaceOnUse"><stop stop-color="#0EABDB"></stop><stop offset=".036" stop-color="#0EABDB"></stop><stop offset=".136" stop-color="#1FB4DC"></stop><stop offset=".334" stop-color="#4CCBDF"></stop><stop offset=".61" stop-color="#94F0E3"></stop><stop offset=".714" stop-color="#B1FFE5"></stop><stop offset="1" stop-color="#B1FFE5"></stop></linearGradient><linearGradient id="prefix__paint5_linear" x1="233.895" x2="361.843" y1="213.583" y2="213.583" gradientUnits="userSpaceOnUse"><stop stop-color="#97D7FF"></stop><stop offset=".25" stop-color="#B1E1FF"></stop><stop offset=".781" stop-color="#F4FBFF"></stop><stop offset=".867" stop-color="#fff"></stop><stop offset="1" stop-color="#fff"></stop></linearGradient><linearGradient id="prefix__paint6_linear" x1="146.341" x2="322.341" y1="66.873" y2="-14.774" gradientUnits="userSpaceOnUse"><stop stop-color="#0044BD"></stop><stop offset=".016" stop-color="#0544BE"></stop><stop offset=".173" stop-color="#3747C6"></stop><stop offset=".31" stop-color="#5A49CC"></stop><stop offset=".422" stop-color="#704AD0"></stop><stop offset=".495" stop-color="#784AD1"></stop><stop offset=".54" stop-color="#7D51D3"></stop><stop offset=".606" stop-color="#8964D8"></stop><stop offset=".685" stop-color="#9E84E1"></stop><stop offset=".773" stop-color="#BAB0ED"></stop><stop offset=".821" stop-color="#CCCBF4"></stop><stop offset="1" stop-color="#CCCBF4"></stop></linearGradient><linearGradient id="prefix__paint7_linear" x1="129.374" x2="305.374" y1="73.536" y2="-8.111" gradientUnits="userSpaceOnUse"><stop stop-color="#0044BD"></stop><stop offset=".016" stop-color="#0544BE"></stop><stop offset=".173" stop-color="#3747C6"></stop><stop offset=".31" stop-color="#5A49CC"></stop><stop offset=".422" stop-color="#704AD0"></stop><stop offset=".495" stop-color="#784AD1"></stop><stop offset=".54" stop-color="#7D51D3"></stop><stop offset=".606" stop-color="#8964D8"></stop><stop offset=".685" stop-color="#9E84E1"></stop><stop offset=".773" stop-color="#BAB0ED"></stop><stop offset=".821" stop-color="#CCCBF4"></stop><stop offset="1" stop-color="#CCCBF4"></stop></linearGradient><linearGradient id="prefix__paint8_linear" x1="-139.238" x2="204.693" y1="254.109" y2="254.109" gradientUnits="userSpaceOnUse"><stop stop-color="#491F99"></stop><stop offset=".109" stop-color="#491F99"></stop><stop offset=".152" stop-color="#5227A4"></stop><stop offset=".272" stop-color="#673ABD"></stop><stop offset=".382" stop-color="#7446CC"></stop><stop offset=".471" stop-color="#784AD1"></stop><stop offset=".541" stop-color="#8D4AB5"></stop><stop offset=".69" stop-color="#B64B80"></stop><stop offset=".819" stop-color="#D34B59"></stop><stop offset=".922" stop-color="#E54B42"></stop><stop offset=".986" stop-color="#EC4B39"></stop><stop offset="1" stop-color="#EC4B39"></stop></linearGradient><linearGradient id="prefix__paint9_linear" x1="-139.238" x2="204.693" y1="214.146" y2="214.146" gradientUnits="userSpaceOnUse"><stop stop-color="#491F99"></stop><stop offset=".109" stop-color="#491F99"></stop><stop offset=".152" stop-color="#5227A4"></stop><stop offset=".272" stop-color="#673ABD"></stop><stop offset=".382" stop-color="#7446CC"></stop><stop offset=".471" stop-color="#784AD1"></stop><stop offset=".541" stop-color="#8D4AB5"></stop><stop offset=".69" stop-color="#B64B80"></stop><stop offset=".819" stop-color="#D34B59"></stop><stop offset=".922" stop-color="#E54B42"></stop><stop offset=".986" stop-color="#EC4B39"></stop><stop offset="1" stop-color="#EC4B39"></stop></linearGradient><linearGradient id="prefix__paint10_linear" x1="268.735" x2="-130.652" y1="133.063" y2="133.063" gradientUnits="userSpaceOnUse"><stop stop-color="#0044BD"></stop><stop offset=".114" stop-color="#084DC6"></stop><stop offset=".299" stop-color="#1E65DE"></stop><stop offset=".494" stop-color="#3B85FF"></stop><stop offset=".698" stop-color="#77BCFF"></stop><stop offset=".76" stop-color="#8ACEFF"></stop><stop offset="1" stop-color="#8ACEFF"></stop></linearGradient><linearGradient id="prefix__paint11_linear" x1="-1.301" x2="95.981" y1="133.064" y2="133.064" gradientUnits="userSpaceOnUse"><stop stop-color="#0044BD"></stop><stop offset=".114" stop-color="#084DC6"></stop><stop offset=".299" stop-color="#1E65DE"></stop><stop offset=".494" stop-color="#3B85FF"></stop><stop offset=".698" stop-color="#77BCFF"></stop><stop offset=".76" stop-color="#8ACEFF"></stop><stop offset="1" stop-color="#8ACEFF"></stop></linearGradient><linearGradient id="prefix__paint12_linear" x1="322.693" x2="385.011" y1="145.561" y2="145.561" gradientUnits="userSpaceOnUse"><stop stop-color="#3B85FF"></stop><stop offset=".099" stop-color="#448AFD"></stop><stop offset=".262" stop-color="#5C97F8"></stop><stop offset=".467" stop-color="#84ADF0"></stop><stop offset=".704" stop-color="#BBCBE5"></stop><stop offset=".842" stop-color="#DEDEDE"></stop><stop offset="1" stop-color="#DEDEDE"></stop></linearGradient><linearGradient id="prefix__paint13_linear" x1="371.101" x2="320.904" y1="138.934" y2="138.934" gradientUnits="userSpaceOnUse"><stop stop-color="#3B85FF"></stop><stop offset=".099" stop-color="#448AFD"></stop><stop offset=".262" stop-color="#5C97F8"></stop><stop offset=".467" stop-color="#84ADF0"></stop><stop offset=".704" stop-color="#BBCBE5"></stop><stop offset=".842" stop-color="#DEDEDE"></stop><stop offset="1" stop-color="#DEDEDE"></stop></linearGradient><linearGradient id="prefix__paint14_linear" x1="389.414" x2="313.09" y1="133.402" y2="132.452" gradientUnits="userSpaceOnUse"><stop stop-color="#3B85FF"></stop><stop offset=".099" stop-color="#448AFD"></stop><stop offset=".262" stop-color="#5C97F8"></stop><stop offset=".467" stop-color="#84ADF0"></stop><stop offset=".704" stop-color="#BBCBE5"></stop><stop offset=".842" stop-color="#DEDEDE"></stop><stop offset="1" stop-color="#DEDEDE"></stop></linearGradient><linearGradient id="prefix__paint15_linear" x1="389.481" x2="313.157" y1="127.427" y2="126.476" gradientUnits="userSpaceOnUse"><stop stop-color="#3B85FF"></stop><stop offset=".099" stop-color="#448AFD"></stop><stop offset=".262" stop-color="#5C97F8"></stop><stop offset=".467" stop-color="#84ADF0"></stop><stop offset=".704" stop-color="#BBCBE5"></stop><stop offset=".842" stop-color="#DEDEDE"></stop><stop offset="1" stop-color="#DEDEDE"></stop></linearGradient><linearGradient id="prefix__paint16_linear" x1="389.549" x2="313.225" y1="121.452" y2="120.502" gradientUnits="userSpaceOnUse"><stop stop-color="#3B85FF"></stop><stop offset=".099" stop-color="#448AFD"></stop><stop offset=".262" stop-color="#5C97F8"></stop><stop offset=".467" stop-color="#84ADF0"></stop><stop offset=".704" stop-color="#BBCBE5"></stop><stop offset=".842" stop-color="#DEDEDE"></stop><stop offset="1" stop-color="#DEDEDE"></stop></linearGradient><linearGradient id="prefix__paint17_linear" x1="389.617" x2="313.293" y1="115.478" y2="114.527" gradientUnits="userSpaceOnUse"><stop stop-color="#3B85FF"></stop><stop offset=".099" stop-color="#448AFD"></stop><stop offset=".262" stop-color="#5C97F8"></stop><stop offset=".467" stop-color="#84ADF0"></stop><stop offset=".704" stop-color="#BBCBE5"></stop><stop offset=".842" stop-color="#DEDEDE"></stop><stop offset="1" stop-color="#DEDEDE"></stop></linearGradient><linearGradient id="prefix__paint18_linear" x1="250.631" x2="368.151" y1="104.065" y2="104.065" gradientUnits="userSpaceOnUse"><stop stop-color="#3B85FF"></stop><stop offset=".099" stop-color="#448AFD"></stop><stop offset=".262" stop-color="#5C97F8"></stop><stop offset=".467" stop-color="#84ADF0"></stop><stop offset=".704" stop-color="#BBCBE5"></stop><stop offset=".842" stop-color="#DEDEDE"></stop><stop offset="1" stop-color="#DEDEDE"></stop></linearGradient><clipPath id="prefix__clip0"><path fill="#fff" d="M0 0h407.5v274.47H0V0z"></path></clipPath></defs></svg> 